<svg xmlns="http://www.w3.org/2000/svg" viewBox="0 0 512 512" role="img" aria-labelledby="title desc">
  <title id="title">Logo temporaire MAJA 13</title>
  <desc id="desc">Monogramme M13 bordeaux sur fond noir, à remplacer par le logo officiel.</desc>
  <defs>
    <linearGradient id="bg" x1="0" y1="0" x2="1" y2="1"><stop stop-color="#17171c"/><stop offset="1" stop-color="#060607"/></linearGradient>
    <linearGradient id="red" x1="0" y1="0" x2="1" y2="1"><stop stop-color="#e05a6b"/><stop offset="1" stop-color="#8d202f"/></linearGradient>
  </defs>
  <rect width="512" height="512" rx="96" fill="url(#bg)"/>
  <rect x="18" y="18" width="476" height="476" rx="82" fill="none" stroke="#e7e0d3" stroke-opacity=".14" stroke-width="4"/>
  <path d="M98 354V158h43l54 82 54-82h43v196h-45V229l-52 77-52-77v125z" fill="#e7e0d3"/>
  <path d="M322 196h37v158h-42V238l-30 18v-42zM382 196h75v36h-33l28 28v22l-31 31h39v41h-86v-36l37-37-34-33z" fill="url(#red)"/>
  <text x="256" y="420" text-anchor="middle" fill="#b6a98e" font-family="Arial,sans-serif" font-size="18" font-weight="700" letter-spacing="8">TEMPORARY MARK</text>
</svg>
